<svg width="33" height="33" viewBox="0 0 33 33" fill="none" xmlns="http://www.w3.org/2000/svg">
<path fill-rule="evenodd" clip-rule="evenodd" d="M9.11073 3.51554C8.03071 3.65688 7.45999 3.91688 7.05192 4.31554C6.64517 4.71554 6.37973 5.27554 6.23419 6.33288C6.08465 7.42221 6.08171 8.86488 6.08131 10.9329L6.07912 22.3595C6.60679 21.9984 7.19276 21.7309 7.81127 21.5689C8.51531 21.3835 9.33664 21.3835 10.5406 21.3849H27.4126L27.4146 10.9342C27.415 8.86488 27.4127 7.42221 27.2635 6.33288C27.1184 5.27554 26.8532 4.71554 26.4466 4.31554C26.0387 3.91688 25.468 3.65688 24.3881 3.51554C23.2761 3.36888 21.8041 3.36621 19.6921 3.36621H13.8068C11.6948 3.36621 10.2228 3.36888 9.11073 3.51554ZM9.76025 9.49288C9.76037 8.89554 10.2538 8.41154 10.8631 8.41154H22.6338C22.9231 8.40905 23.2015 8.52132 23.4082 8.72375C23.6148 8.92618 23.7328 9.20227 23.7363 9.49154C23.733 9.78105 23.6151 10.0575 23.4084 10.2602C23.2016 10.4629 22.9229 10.5754 22.6334 10.5729H10.8627C10.5734 10.5754 10.295 10.4631 10.0883 10.2607C9.88169 10.0582 9.76372 9.78215 9.76025 9.49288ZM10.8622 13.4569C10.5729 13.4544 10.2944 13.5667 10.0877 13.7691C9.88094 13.9715 9.76286 14.2476 9.75929 14.5369C9.75917 15.1342 10.2524 15.6182 10.8617 15.6182H18.2177C18.5073 15.6211 18.7861 15.5089 18.9931 15.3065C19.2001 15.104 19.3184 14.8277 19.322 14.5382C19.3188 14.2485 19.2008 13.9718 18.9939 13.7691C18.7869 13.5663 18.5079 13.454 18.2182 13.4569H10.8622Z" fill="#29BA7F"/>
<path d="M10.7096 23.5464H27.4122C27.4079 25.0531 27.3837 26.1784 27.2609 27.0664C27.1153 28.1237 26.8499 28.6837 26.4432 29.0837C26.0351 29.4824 25.4644 29.7424 24.3843 29.8837C23.2723 30.0304 21.8003 30.0331 19.6883 30.0331H13.8017C11.6897 30.0331 10.2177 30.0304 9.10568 29.8851C8.02571 29.7424 7.45509 29.4824 7.04717 29.0837C6.64058 28.6837 6.37535 28.1237 6.23022 27.0664C6.17563 26.6664 6.13972 26.2171 6.11848 25.7064C6.30173 25.2072 6.6034 24.7599 6.99758 24.4029C7.39176 24.046 7.86668 23.79 8.38154 23.6571C8.76823 23.5557 9.2709 23.5464 10.7096 23.5464Z" fill="#29BA7F"/>
</svg>
