<svg width="34" height="34" viewBox="0 0 34 34" fill="none" xmlns="http://www.w3.org/2000/svg">
<path d="M12.5304 5.79893C13.3201 5.77133 13.9795 6.36311 14.006 7.12319L14.054 8.49736L19.7648 8.29775L19.7168 6.92359C19.6903 6.1635 20.3069 5.52712 21.0966 5.49952C21.8863 5.47192 22.5457 6.0637 22.5722 6.82379L22.6202 8.19795L24.7617 8.1231C25.944 8.08177 26.9355 8.97151 26.9752 10.1095L27.0471 12.1707L7.0593 12.8694L6.98738 10.8081C6.94768 9.67013 7.8747 8.71334 9.05702 8.67201L11.1986 8.59716L11.1506 7.223C11.1241 6.46291 11.7407 5.82653 12.5304 5.79893ZM7.10724 14.2435L27.095 13.5449L27.5026 25.2253C27.5423 26.3633 26.6152 27.3201 25.4329 27.3614L9.72823 27.9103C8.54592 27.9516 7.55447 27.0619 7.51476 25.9239L7.10724 14.2435ZM10.0825 17.5791L10.1304 18.9533C10.1436 19.3312 10.4756 19.6291 10.8683 19.6154L12.296 19.5655C12.6886 19.5518 12.999 19.2314 12.9858 18.8535L12.9379 17.4793C12.9247 17.1014 12.5927 16.8035 12.2001 16.8172L10.7724 16.8671C10.3798 16.8808 10.0693 17.2012 10.0825 17.5791ZM15.7933 17.3795L15.8412 18.7537C15.8544 19.1316 16.1864 19.4295 16.5791 19.4158L18.0068 19.3659C18.3994 19.3522 18.7098 19.0318 18.6966 18.6539L18.6487 17.2797C18.6355 16.9018 18.3035 16.6039 17.9109 16.6176L16.4832 16.6675C16.0906 16.6812 15.7801 17.0016 15.7933 17.3795ZM22.194 16.4679C21.8014 16.4816 21.4909 16.802 21.5041 17.1799L21.552 18.5541C21.5652 18.932 21.8972 19.2299 22.2899 19.2162L23.7176 19.1663C24.1102 19.1526 24.4206 18.8322 24.4074 18.4543L24.3595 17.0801C24.3463 16.7022 24.0143 16.4043 23.6217 16.418L22.194 16.4679ZM10.2743 23.0758L10.3222 24.4499C10.3354 24.8278 10.6674 25.1258 11.06 25.1121L12.4877 25.0622C12.8804 25.0485 13.1908 24.728 13.1776 24.3501L13.1297 22.976C13.1165 22.5981 12.7845 22.3001 12.3919 22.3138L10.9642 22.3637C10.5715 22.3775 10.2611 22.6979 10.2743 23.0758ZM16.675 22.1641C16.2823 22.1779 15.9719 22.4983 15.9851 22.8762L16.033 24.2503C16.0462 24.6282 16.3782 24.9262 16.7708 24.9125L18.1985 24.8626C18.5912 24.8488 18.9016 24.5284 18.8884 24.1505L18.8405 22.7764C18.8273 22.3985 18.4953 22.1005 18.1027 22.1142L16.675 22.1641ZM21.6959 22.6766L21.7438 24.0507C21.757 24.4286 22.089 24.7266 22.4816 24.7129L23.9093 24.663C24.302 24.6492 24.6124 24.3288 24.5992 23.9509L24.5513 22.5768C24.5381 22.1989 24.2061 21.9009 23.8135 21.9146L22.3858 21.9645C21.9931 21.9783 21.6827 22.2987 21.6959 22.6766Z" fill="#29BA7F"/>
</svg>
