<svg width="34" height="34" viewBox="0 0 34 34" fill="none" xmlns="http://www.w3.org/2000/svg">
<path d="M15.8 18.263L17.1942 17.1135L18.6316 18.1638C18.9051 18.3544 19.1718 18.3508 19.4317 18.1532C19.6917 17.9555 19.7718 17.7023 19.6721 17.3936L19.0431 15.6145L20.5981 14.2927C20.8354 14.0842 20.8991 13.8316 20.7892 13.5348C20.6792 13.2381 20.4683 13.0956 20.1566 13.1074L18.2577 13.1739L17.6299 11.4281C17.508 11.1211 17.2916 10.973 16.9807 10.9839C16.6698 10.9948 16.4642 11.1576 16.364 11.4724L15.8592 13.2579L13.9604 13.3244C13.6272 13.336 13.4157 13.4937 13.3258 13.7975C13.2358 14.1013 13.3169 14.3484 13.5691 14.5388L15.2122 15.7487L14.7085 17.5674C14.6083 17.8822 14.7005 18.1294 14.9851 18.3089C15.2698 18.4884 15.5414 18.4731 15.8 18.263ZM11.4577 31.4897C11.019 31.6607 10.6115 31.6194 10.2353 31.3658C9.85917 31.1121 9.6638 30.7632 9.64922 30.319L9.35455 21.8574C8.47813 20.9542 7.78586 19.9111 7.27771 18.7282C6.76957 17.5453 6.4919 16.2764 6.44473 14.9217C6.34109 11.9457 7.28601 9.38885 9.27948 7.25111C11.273 5.11337 13.7577 3.9924 16.7336 3.88819C19.7096 3.78398 22.2662 4.72842 24.4035 6.72151C26.5409 8.7146 27.6614 11.1991 27.765 14.1751C27.8122 15.5298 27.6235 16.815 27.1988 18.0306C26.7742 19.2462 26.1562 20.3352 25.3447 21.2975L25.6394 29.759C25.6549 30.2032 25.4838 30.565 25.1262 30.8443C24.7686 31.1237 24.3655 31.1934 23.9168 31.0535L17.6153 29.2062L11.4577 31.4897ZM17.3833 22.5435C19.6042 22.4658 21.4648 21.6224 22.9653 20.0133C24.4657 18.4043 25.1773 16.4893 25.1 14.2684C25.0226 12.0476 24.1796 10.187 22.5708 8.68685C20.9621 7.18668 19.0473 6.47547 16.8264 6.55324C14.6056 6.63101 12.7449 7.47442 11.2444 9.08347C9.74398 10.6925 9.03242 12.6075 9.10976 14.8284C9.1871 17.0492 10.0301 18.9098 11.6389 20.4099C13.2476 21.9101 15.1624 22.6213 17.3833 22.5435Z" fill="#29BA7F"/>
</svg>
