<svg width="34" height="35" viewBox="0 0 34 35" fill="none" xmlns="http://www.w3.org/2000/svg">
<path fill-rule="evenodd" clip-rule="evenodd" d="M19.7607 28.7331L19.0811 29.9789C18.4755 31.0887 16.8671 31.1449 16.1842 30.0801L15.4194 28.8847C14.8267 27.9582 14.5303 27.4936 14.0708 27.2481C13.6112 27.0013 13.0445 27.0118 11.9112 27.0314C10.2366 27.0618 9.18431 26.9958 8.29209 26.6614C7.47205 26.3548 6.72042 25.8897 6.08013 25.2926C5.43984 24.6956 4.92343 23.9782 4.56037 23.1815C4.00997 21.976 3.95575 20.4236 3.84733 17.3189L3.8008 15.9863C3.6485 11.625 3.57233 9.44366 4.49846 7.80768C5.01621 6.89198 5.7433 6.1118 6.6203 5.53091C8.18902 4.49286 10.3717 4.41664 14.7317 4.26438L18.7293 4.12479C23.0906 3.97249 25.2719 3.89631 26.9093 4.8224C27.8245 5.34033 28.6042 6.06742 29.1847 6.94428C30.2227 8.51301 30.299 10.6957 30.4512 15.0557L30.4978 16.3882C30.6062 19.493 30.6604 21.0454 30.1967 22.2863C29.89 23.1065 29.4247 23.8582 28.8274 24.4985C28.23 25.1388 27.5124 25.6552 26.7155 26.0181C25.8488 26.4139 24.8037 26.5518 23.131 26.6395C21.9991 26.6991 21.4331 26.7282 20.9919 27.0064C20.5506 27.2833 20.2873 27.7661 19.7607 28.7331ZM11.8541 17.3728C11.589 17.3821 11.3385 17.4962 11.1576 17.6902C10.9768 17.8842 10.8803 18.142 10.8896 18.4071C10.8989 18.6721 11.013 18.9227 11.207 19.1035C11.401 19.2844 11.6588 19.3808 11.9239 19.3716L19.2528 19.1156C19.5178 19.1064 19.7683 18.9922 19.9492 18.7983C20.1301 18.6043 20.2265 18.3464 20.2173 18.0814C20.208 17.8163 20.0938 17.5658 19.8999 17.3849C19.7059 17.204 19.448 17.1076 19.183 17.1169L11.8541 17.3728ZM10.7267 13.7433C10.7175 13.4782 10.8139 13.2203 10.9948 13.0264C11.1757 12.8324 11.4262 12.7182 11.6912 12.709L22.3514 12.3367C22.6165 12.3275 22.8743 12.4239 23.0683 12.6047C23.2623 12.7856 23.3764 13.0361 23.3857 13.3012C23.3949 13.5663 23.2985 13.8241 23.1177 14.0181C22.9368 14.2121 22.6863 14.3262 22.4212 14.3355L11.761 14.7078C11.496 14.717 11.2381 14.6206 11.0441 14.4397C10.8502 14.2588 10.736 14.0083 10.7267 13.7433Z" fill="#29BA7F"/>
</svg>
