<svg width="34" height="34" viewBox="0 0 34 34" fill="none" xmlns="http://www.w3.org/2000/svg">
<path fill-rule="evenodd" clip-rule="evenodd" d="M16.8049 5.34427C13.7954 5.44936 11.0878 6.53919 9.49381 7.40801C9.34979 7.48642 9.21572 7.56315 9.09088 7.63688C8.84383 7.78292 8.63376 7.91834 8.46713 8.03689L10.4076 10.6895L11.2884 11.0049C14.7435 12.5993 19.2967 12.4403 22.6329 10.6087L23.601 10.0626L25.2576 7.45056C24.8877 7.22733 24.5042 7.0275 24.1093 6.85227C22.4676 6.10511 19.7578 5.24115 16.8049 5.34427ZM12.6196 8.56963C11.9618 8.47016 11.3107 8.33072 10.6698 8.15209C12.166 7.4241 14.4063 6.62876 16.8461 6.54356C18.5364 6.48453 20.1468 6.77251 21.4839 7.16208C19.9424 7.43404 18.3023 7.86154 16.7432 8.3716C15.5165 8.77332 14.0667 8.78526 12.6196 8.56963ZM23.3709 11.5722L23.2106 11.6606C19.5407 13.6752 14.5863 13.8482 10.7848 12.0945L10.6275 12.0213C5.23126 18.3741 1.34436 29.8968 17.6424 29.3277C33.9392 28.7586 29.1459 17.3262 23.3709 11.5722ZM16.5308 17.3612C16.1774 17.3735 15.8434 17.5257 15.6022 17.7843C15.361 18.043 15.2325 18.3868 15.2448 18.7402C15.2571 19.0936 15.4094 19.4276 15.668 19.6688C15.9266 19.91 16.2704 20.0385 16.6239 20.0262L16.5308 17.3612ZM17.8168 15.9821L17.7935 15.3158L16.461 15.3624L16.4843 16.0286C15.7774 16.0533 15.1094 16.3578 14.627 16.875C14.1447 17.3923 13.8876 18.0799 13.9123 18.7867C13.937 19.4936 14.2414 20.1616 14.7587 20.644C15.2759 21.1263 15.9636 21.3834 16.6704 21.3587L16.7635 24.0238C16.4879 24.0335 16.2161 23.9575 15.9855 23.8063C15.7549 23.6551 15.5768 23.4361 15.4759 23.1795C15.4112 23.0149 15.2838 22.8828 15.1217 22.8121C14.9596 22.7415 14.7761 22.7381 14.6115 22.8028C14.447 22.8674 14.3148 22.9948 14.2442 23.1569C14.1735 23.319 14.1701 23.5025 14.2348 23.6671C14.4367 24.1804 14.7928 24.6184 15.254 24.9209C15.7152 25.2234 16.2588 25.3755 16.81 25.3563L16.8333 26.0225L18.1658 25.976L18.1425 25.3097C18.8493 25.2851 19.5174 24.9806 19.9997 24.4634C20.4821 23.9461 20.7392 23.2585 20.7145 22.5516C20.6898 21.8448 20.3853 21.1768 19.8681 20.6944C19.3509 20.2121 18.6632 19.955 17.9564 19.9797L17.8633 17.3146C18.443 17.2944 18.9496 17.6469 19.1516 18.1588C19.1818 18.2427 19.2286 18.3196 19.2891 18.3851C19.3495 18.4506 19.4226 18.5032 19.5038 18.54C19.585 18.5768 19.6727 18.5969 19.7618 18.5991C19.851 18.6014 19.9396 18.5857 20.0226 18.5531C20.1055 18.5205 20.1811 18.4716 20.2448 18.4092C20.3086 18.3469 20.3591 18.2724 20.3936 18.1902C20.428 18.108 20.4456 18.0197 20.4453 17.9306C20.4451 17.8414 20.4269 17.7533 20.392 17.6713C20.19 17.158 19.834 16.72 19.3728 16.4175C18.9116 16.115 18.368 15.9629 17.8168 15.9821ZM18.0029 21.3122L18.096 23.9772C18.4494 23.9649 18.7834 23.8127 19.0246 23.554C19.2657 23.2954 19.3943 22.9516 19.382 22.5982C19.3696 22.2448 19.2174 21.9107 18.9588 21.6696C18.7001 21.4284 18.3563 21.2998 18.0029 21.3122Z" fill="#29BA7F"/>
</svg>
